{"title":"Blacks.Game.2012.DVDRiP.x264.AAC-OFFLiNE ","uid":8132625,"size":1544611470,"categoryP":"video","categoryS":"movies","magnet":"?xt=urn:btih:a136de071ec3ec93dd298bd55b0a214671f8d41c&amp;dn=Blacks.Game.2012.DVDRiP.x264.AAC-OFFLiNE+&amp;tr=udp%3A%2F%2Ftracker.openbittorrent.com%3A80&amp;tr=udp%3A%2F%2Fopen.demonii.com%3A1337&amp;tr=udp%3A%2F%2Ftracker.coppersurfer.tk%3A6969&amp;tr=udp%3A%2F%2Fexodus.desync.com%3A6969","seeders":3,"leechers":1,"uploader":"Acesn8s","files":-1,"time":1360641134,"description":"Blacks Game 2012 DVDRip x264 AAC-OFFLiNE\n\nSource: DVDR.R1.NTSC &lt;&lt; had english 5.1 on\n &lt;a href=&quot;\nhttp://www.imdb.com/title/tt1860181/&quot; rel=&quot;nofollow&quot; target=&quot;_NEW&quot;&gt;\nhttp://www.imdb.com/title/tt1860181/&lt;/a&gt;\n\nAfter being reacquainted with a childhood friend Stebbi joins the drug trade world in order to pay off his debt. Inspired by actual events.\n\nGeneral\nComplete name                            : Blacks Game 2012 DVDRip x264 AAC-OFFLiNE.mp4\nFormat                                   : MPEG-4\nFormat profile                           : Base Media\nCodec ID                                 : isom\nFile size                                : 1.42 GiB\nDuration                                 : 1h 45mn\nOverall bit rate mode                    : Variable\nOverall bit rate                         : 1 938 Kbps\nEncoded date                             : UTC 2013-02-12 01:39:08\nTagged date                              : UTC 2013-02-12 01:39:08\n\nVideo\nID                                       : 1\nFormat                                   : AVC\nFormat/Info                              : Advanced Video Codec\nFormat profile                           : &lt;a class=&quot;__cf_email__&quot; href=&quot;/cdn-cgi/l/email-protection&quot; data-cfemail=&quot;eea6878986aea2dac0df&quot;&gt;[email&amp;#160;protected]&lt;/a&gt;&lt;script cf-hash='f9e31' type=&quot;text/javascript&quot;&gt;\n/* &lt;![CDATA[ */!function(){try{var t=&quot;currentScript&quot;in document?document.currentScript:function(){for(var t=document.getElementsByTagName(&quot;script&quot;),e=t.length;e--;)if(t[e].getAttribute(&quot;cf-hash&quot;))return t[e]}();if(t&amp;&amp;t.previousSibling){var e,r,n,i,c=t.previousSibling,a=c.getAttribute(&quot;data-cfemail&quot;);if(a){for(e=&quot;&quot;,r=parseInt(a.substr(0,2),16),n=2;a.length-n;n+=2)i=parseInt(a.substr(n,2),16)^r,e+=String.fromCharCode(i);e=document.createTextNode(e),c.parentNode.replaceChild(e,c)}}}catch(u){}}();/* ]]&gt; */&lt;/script&gt;\nFormat settings, CABAC                   : Yes\nFormat settings, ReFrames                : 3 frames\nCodec ID                                 : avc1\nCodec ID/Info                            : Advanced Video Coding\nDuration                                 : 1h 45mn\nBit rate mode                            : Variable\nBit rate                                 : 1 638 Kbps\nMaximum bit rate                         : 40.0 Mbps\nWidth                                    : 720 pixels\nHeight                                   : 288 pixels\nDisplay aspect ratio                     : 2.500\nFrame rate mode                          : Constant\nFrame rate                               : 23.976 fps\nColor space                              : YUV\nChroma subsampling                       : 4:2:0\nBit depth                                : 8 bits\nScan type                                : Progressive\nBits/(Pixel*Frame)                       : 0.329\nStream size                              : 1.20 GiB (84%)\nWriting library                          : x264 core 129 r2245 bc13772\n\nAudio\nID                                       : 2\nFormat                                   : AAC\nFormat/Info                              : Advanced Audio Codec\nFormat profile                           : LC\nCodec ID                                 : 40\nDuration                                 : 1h 45mn\nBit rate mode                            : Variable\nBit rate                                 : 297 Kbps\nMaximum bit rate                         : 391 Kbps\nChannel(s)                               : 6 channels\nChannel positions                        : Front: L C R, Side: L R, LFE\nSampling rate                            : 48.0 KHz\nCompression mode                         : Lossy\nStream size                              : 224 MiB (15%)\nLanguage                                 : English\nEncoded date                             : UTC 2013-02-12 00:08:19\nTagged date                              : UTC 2013-02-12 01:39:49\n\n &lt;a href=&quot;\nhttp://s19.postimage.org/3we9h6yrn/DCEab_Ft_U.png&quot; rel=&quot;nofollow&quot; target=&quot;_NEW&quot;&gt;\nhttp://s19.postimage.org/3we9h6yrn/DCEab_Ft_U.png&lt;/a&gt;\n &lt;a href=&quot;\nhttp://s19.postimage.org/md8o80epv/UZAmj7_XN.png&quot; rel=&quot;nofollow&quot; target=&quot;_NEW&quot;&gt;\nhttp://s19.postimage.org/md8o80epv/UZAmj7_XN.png&lt;/a&gt;\n &lt;a href=&quot;\nhttp://s19.postimage.org/lc8fivxqb/2_Ie_MMz_B0.png&quot; rel=&quot;nofollow&quot; target=&quot;_NEW&quot;&gt;\nhttp://s19.postimage.org/lc8fivxqb/2_Ie_MMz_B0.png&lt;/a&gt;\n &lt;a href=&quot;\nhttp://s19.postimage.org/bg7cj8ryb/2_BCCoogg.png&quot; rel=&quot;nofollow&quot; target=&quot;_NEW&quot;&gt;\nhttp://s19.postimage.org/bg7cj8ryb/2_BCCoogg.png&lt;/a&gt;","torrent":{"xt":"urn:btih:a136de071ec3ec93dd298bd55b0a214671f8d41c","amp;dn":"Blacks.Game.2012.DVDRiP.x264.AAC-OFFLiNE+","amp;tr":["udp%3A%2F%2Ftracker.openbittorrent.com%3A80","udp%3A%2F%2Fopen.demonii.com%3A1337","udp%3A%2F%2Ftracker.coppersurfer.tk%3A6969","udp%3A%2F%2Fexodus.desync.com%3A6969"],"infoHash":"a136de071ec3ec93dd298bd55b0a214671f8d41c","infoHashBuffer":{"type":"Buffer","data":[161,54,222,7,30,195,236,147,221,41,139,213,91,10,33,70,113,248,212,28]},"announce":[],"urlList":[]}}